<svg enable-background="new 0 0 490 490" height="512" viewBox="0 0 490 490" width="512" xmlns="http://www.w3.org/2000/svg"><path d="m69.4 0v490h351.2v-490zm113.6 47.1c15.9 0 28.8 12.4 28.8 27.6s-12.8 27.6-28.8 27.6-28.8-12.4-28.8-27.6 12.8-27.6 28.8-27.6zm-80.1 136.1c1.6-36.9 36.6-65.7 80.1-65.7s78.6 28.8 80.1 65.7c0 4.3-2.3 8.2-5.8 9.7-21.8 10.1-47.4 15.6-74.3 15.6-26.4 0-52.1-5.4-74.3-15.6-3.5-2-5.8-5.8-5.8-9.7zm266 248.9h-247.4c-5.8 0-10.1-4.7-10.1-10.1 0-5.8 4.7-10.1 10.1-10.1h246.9c5.8 0 10.1 4.7 10.1 10.1.5 5.8-4.2 10.1-9.6 10.1zm0-71.6h-247.4c-5.8 0-10.1-4.7-10.1-10.1 0-5.8 4.7-10.1 10.1-10.1h246.9c5.8 0 10.1 4.7 10.1 10.1.5 5.4-4.2 10.1-9.6 10.1zm0-71.9h-247.4c-5.8 0-10.1-4.7-10.1-10.1 0-5.8 4.7-10.1 10.1-10.1h246.9c5.8 0 10.1 4.7 10.1 10.1.5 5.4-4.2 10.1-9.6 10.1z" fill="#a0abbf"/></svg>