<svg enable-background="new 0 0 511.626 511.627" height="512" viewBox="0 0 511.626 511.627" width="512" xmlns="http://www.w3.org/2000/svg"><g fill="#a0abbf"><path d="m319.77 338.039c0 4.949-1.811 9.236-5.424 12.847-3.617 3.621-7.902 5.428-12.851 5.428h-91.361c-4.952 0-9.233-1.807-12.85-5.428-3.616-3.61-5.424-7.897-5.424-12.847v-45.679h-191.86v137.044c0 12.56 4.471 23.312 13.418 32.257 8.945 8.946 19.701 13.419 32.264 13.419h420.266c12.56 0 23.315-4.473 32.261-13.419 8.949-8.945 13.418-19.697 13.418-32.257v-137.044h-191.857z"/><path d="m219.266 292.36h73.096v36.545h-73.096z"/><path d="m498.208 123.054c-8.945-8.947-19.701-13.418-32.261-13.418h-100.501v-45.683c0-7.614-2.663-14.084-7.994-19.414-5.325-5.327-11.8-7.993-19.411-7.993h-164.452c-7.612 0-14.083 2.666-19.414 7.993s-7.994 11.799-7.994 19.414v45.683h-100.499c-12.562 0-23.318 4.471-32.264 13.418-8.947 8.946-13.418 19.696-13.418 32.259v109.636h511.626v-109.636c0-12.563-4.468-23.313-13.418-32.259zm-169.304-13.418h-146.179v-36.547h146.179z"/></g></svg>