<svg enable-background="new 0 0 45.836 45.836" height="512" viewBox="0 0 45.836 45.836" width="512" xmlns="http://www.w3.org/2000/svg"><g fill="#a0acbf"><path d="m10.553 21.354.722 3.281 3.583-1.717h.054v14.909h4.283v-18.793h-3.672z"/><path d="m33.013 26.854c-1.326-.953-3.146-1.356-4.938-1.356-.463 0-.811.007-1.215.064l.404-2.881h7.312v-3.646h-10.374l-1.24 9.86c.781-.116 1.501-.168 2.541-.168 3.756 0 5.286 1.188 5.286 3.123 0 1.993-1.937 2.86-3.755 2.86-1.704 0-3.408-.52-4.245-.923l-.781 3.293c1.041.548 2.948 1.068 5.229 1.068 5.055 0 8.06-3.091 8.06-6.585-.001-2.197-.867-3.756-2.284-4.709z"/><path d="m40.446 2.844v2.292c0 2.311-1.896 4.223-4.205 4.223h-.215c-2.31 0-4.225-1.913-4.225-4.223v-2.596h-4.6v2.596c0 2.311-1.914 4.223-4.224 4.223h-.212c-2.312 0-4.208-1.913-4.208-4.223v-2.596h-4.677v2.596c0 2.311-1.853 4.223-4.163 4.223h-.214c-2.311 0-4.188-1.913-4.188-4.223v-2.257c-2.696.885-4.599 3.407-4.599 6.379v29.886c0 3.711 2.997 6.691 6.708 6.691h30.997c3.711 0 6.699-2.98 6.699-6.691v-29.886c.004-3.01-1.978-5.561-4.674-6.414zm1.348 35.683c0 2.148-1.727 3.898-3.875 3.898h-29.989c-2.148 0-3.881-1.75-3.881-3.898v-21.232c0-1.463 1.176-2.624 2.64-2.624h32.472c1.464 0 2.634 1.161 2.634 2.624z"/><path d="m9.506 7.296h.213c.664 0 1.254-.28 1.655-.747.331-.384.525-.867.525-1.414v-2.971c0-.6-.235-1.144-.626-1.54-.004-.003-.004-.008-.007-.011s-.004.012-.006.009c-.397-.393-.94-.62-1.542-.62h-.213c-.603 0-1.147.227-1.544.62-.001.003-.003-.003-.006-.001-.004.004-.013.003-.016.005-.392.397-.639.936-.639 1.537v2.973c0 .546.206 1.03.537 1.414.402.468 1.004.746 1.669.746z"/><path d="m21.515 6.947c.004.002.015.005.018.007.006.004.018-.008.023-.004.347.229.764.347 1.211.347h.001.212c.376 0 .729-.078 1.037-.245.004-.001.006.006.01.004.006-.004-.002-.004.006-.009.672-.375 1.111-1.088 1.111-1.912v-2.972c0-.713-.326-1.347-.854-1.748-.005-.003-.001-.007-.005-.01l.004.017c-.365-.274-.815-.419-1.308-.419h-.213c-.567 0-1.083.199-1.472.552-.001 0-.002-.007-.002-.007-.005.004-.024.004-.028.008-.435.401-.723.97-.723 1.608v2.974c-.001.75.395 1.414.972 1.809z"/><path d="m36.028 7.296h.213c.666 0 1.273-.28 1.678-.747.331-.384.547-.867.547-1.414v-2.971c0-.829-.477-1.55-1.154-1.924-.005-.002-.015-.004-.018-.006-.055-.029-.113-.055-.169-.08-.011-.004-.021-.008-.028-.012-.014-.005-.027-.01-.041-.016-.021-.008-.04-.016-.061-.023-.012-.004-.021-.007-.032-.011-.022-.008-.047 0-.069-.007-.205-.064-.426-.083-.652-.083h-.213c-.113 0-.209-.007-.318.009-1.055.161-1.846 1.055-1.846 2.152v2.974c-.001 1.21.952 2.159 2.163 2.159z"/></g></svg>