<svg enable-background="new 0 0 485.213 485.213" height="512" viewBox="0 0 485.213 485.213" width="512" xmlns="http://www.w3.org/2000/svg"><g fill="#9fa6b2"><path d="m363.909 181.955c0-100.482-81.469-181.955-181.953-181.955-100.482 0-181.955 81.473-181.955 181.955s81.473 181.951 181.955 181.951c100.484 0 181.953-81.469 181.953-181.951zm-181.953 136.461c-75.252 0-136.465-61.208-136.465-136.46s61.213-136.465 136.465-136.465c75.25 0 136.468 61.213 136.468 136.465s-61.218 136.46-136.468 136.46z"/><path d="m471.882 407.567-111.315-111.324c-16.586 25.795-38.536 47.734-64.331 64.321l111.324 111.324c17.772 17.768 46.587 17.768 64.321 0 17.773-17.739 17.773-46.554.001-64.321z"/></g></svg>