<svg enable-background="new 0 0 300 300" height="512" viewBox="0 0 300 300" width="512" xmlns="http://www.w3.org/2000/svg"><path d="m293.852 0h-287.706c-3.394 0-6.146 2.752-6.146 6.147v287.706c0 3.395 2.752 6.147 6.146 6.147h287.706c3.396 0 6.148-2.752 6.148-6.147v-287.706c0-3.395-2.752-6.147-6.148-6.147zm-154.209 29.988c2.75 0 5 2.25 5 5v104.654c0 2.75-2.25 5-5 5h-104.655c-2.75 0-5-2.25-5-5v-104.654c0-2.75 2.25-5 5-5zm20.713 240.025c-2.75 0-5-2.25-5-5v-104.656c0-2.75 2.25-5 5-5h104.655c2.75 0 5 2.25 5 5v104.655c0 2.75-2.25 5-5 5h-104.655zm-5 0" fill="#6e798b"/></svg>